G04 ================== begin FILE IDENTIFICATION RECORD ==================*
G04 Layout Name:  C:/Facultate/Proiect Apd OrCad/OrCAD/PROIECT_APD_Ispas_pcb.brd*
G04 Film Name:    BOTTOM*
G04 File Format:  Gerber RS274X*
G04 File Origin:  Cadence Allegro 25.1-P001*
G04 Origin Date:  Mon Jan 26 01:14:13 2026*
G04 *
G04 Layer:  VIA CLASS/BOTTOM*
G04 Layer:  PIN/BOTTOM*
G04 Layer:  ETCH/BOTTOM*
G04 *
G04 Offset:    (0.00 0.00)*
G04 Mirror:    No*
G04 Mode:      Positive*
G04 Rotation:  0*
G04 FullContactRelief:  No*
G04 UndefLineWidth:     6.00*
G04 ================== end FILE IDENTIFICATION RECORD ====================*
%FSLAX25Y25*MOIN*%
%IR0*IPPOS*OFA0.00000B0.00000*MIA0B0*SFA1.00000B1.00000*%
%ADD10C,.024*%
%ADD11C,.022*%
%ADD12C,.016*%
G75*
%LPD*%
G75*
G36*
G01X8007Y149499D02*
X149499D01*
Y8093D01*
X8007D01*
Y149499D01*
G37*
%LPC*%
G75*
G36*
G01X118802Y85698D02*
G02X120500Y86402I1699J-1698D01*
G01X121555D01*
X121602Y86428D01*
G02X123000Y86802I1399J-2428D01*
G02Y81198I0J-2802D01*
G02X121951Y81402I1J2802D01*
G03X121402Y81031I-149J-371D01*
G01Y58444D01*
G02X121802Y57000I-2402J-1443D01*
G02X116198I-2802J0D01*
G02X116598Y58444I2802J1D01*
G01Y82500D01*
G02X117302Y84198I2402J-1D01*
G01X118802Y85698D01*
G37*
G36*
G01X61523Y117598D02*
G02X60079Y117198I-1443J2402D01*
G02Y122802I0J2802D01*
G02X61523Y122402I1J-2802D01*
G01X84556D01*
G02X86000Y122802I1443J-2402D01*
G02Y117198I0J-2802D01*
G02X84556Y117598I-1J2802D01*
G01X61523D01*
G37*
G36*
G01X129298Y106702D02*
Y125256D01*
X129292Y125281D01*
G02X129198Y126000I2708J720D01*
G02X134802I2802J0D01*
G02X134708Y125281I-2802J1D01*
G01X134702Y125256D01*
Y104000D01*
G02X134021Y102207I-2701J0D01*
G03X134026Y101936I149J-133D01*
G02X134802Y100000I-2027J-1936D01*
G02X132000Y97198I-2802J0D01*
G02X131281Y97292I1J2802D01*
G01X131256Y97298D01*
X112702D01*
Y88000D01*
G02X110000Y85298I-2702J0D01*
G01X96702D01*
Y69744D01*
X96708Y69719D01*
G02X96802Y69000I-2708J-720D01*
G02X91198I-2802J0D01*
G02X91292Y69719I2802J-1D01*
G01X91298Y69744D01*
Y88000D01*
G02X94000Y90702I2702J0D01*
G01X107298D01*
Y100000D01*
G02X107414Y100783I2701J0D01*
G03X107032Y101298I-383J115D01*
G01X105702D01*
Y101000D01*
G02X103000Y98298I-2702J0D01*
G01X83702D01*
Y81000D01*
G02X81000Y78298I-2702J0D01*
G01X63702D01*
Y62744D01*
X63708Y62719D01*
G02X63802Y62000I-2708J-720D01*
G02X58198I-2802J0D01*
G02X58292Y62719I2802J-1D01*
G01X58298Y62744D01*
Y68347D01*
G03X57770Y68725I-400J-1D01*
G02X57000Y68598I-771J2275D01*
G01X47402D01*
Y67445D01*
X47428Y67398D01*
G02X47802Y66000I-2428J-1399D01*
G02X42198I-2802J0D01*
G02X42598Y67444I2802J1D01*
G01Y71000D01*
G02X45000Y73402I2402J0D01*
G01X54598D01*
Y86000D01*
G02X57000Y88402I2402J0D01*
G01X74598D01*
Y105000D01*
G02X77000Y107402I2402J0D01*
G01X90556D01*
G02X92000Y107802I1443J-2402D01*
G02X94802Y105000I0J-2802D01*
G02X94689Y104214I-2802J2D01*
G03X95073Y103702I384J-112D01*
G01X100298D01*
Y104000D01*
G02X103000Y106702I2702J0D01*
G01X129298D01*
G37*
%LPD*%
G75*
G54D10*
X45000Y66000D03*
X61000Y62000D03*
X60079Y120000D03*
X94000Y69000D03*
X92000Y105000D03*
X86000Y120000D03*
X122068Y20000D03*
X119000Y57000D03*
X123000Y84000D03*
X132000Y100000D03*
Y126000D03*
G54D11*
G01X61000Y62000D02*
Y81000D01*
X81000D01*
Y101000D01*
X103000D01*
Y104000D01*
X132000D01*
Y126000D01*
G01X94000Y69000D02*
Y88000D01*
X110000D01*
Y100000D01*
X132000D01*
G54D12*
G01X45000Y66000D02*
Y71000D01*
X57000D01*
Y86000D01*
X77000D01*
Y105000D01*
X92000D01*
G01X86000Y120000D02*
X60079D01*
G01X119000Y57000D02*
Y82500D01*
X120500Y84000D01*
X123000D01*
M02*
