G04 ================== begin FILE IDENTIFICATION RECORD ==================*
G04 Layout Name:  C:/Facultate/Proiect Apd OrCad/OrCAD/PROIECT_APD_Ispas_pcb.brd*
G04 Film Name:    NCLEGEND-1-2*
G04 File Format:  Gerber RS274X*
G04 File Origin:  Cadence Allegro 25.1-P001*
G04 Origin Date:  Mon Jan 26 01:14:13 2026*
G04 *
G04 Layer:  MANUFACTURING/NCLEGEND-1-2*
G04 Layer:  BOARD GEOMETRY/CUTOUT*
G04 Layer:  BOARD GEOMETRY/DESIGN_OUTLINE*
G04 Layer:  BOARD GEOMETRY/DIMENSION*
G04 *
G04 Offset:    (0.00 0.00)*
G04 Mirror:    No*
G04 Mode:      Positive*
G04 Rotation:  0*
G04 FullContactRelief:  No*
G04 UndefLineWidth:     6.00*
G04 ================== end FILE IDENTIFICATION RECORD ====================*
%FSLAX25Y25*MOIN*%
%IR0*IPPOS*OFA0.00000B0.00000*MIA0B0*SFA1.00000B1.00000*%
%AMMACRO10*
1,1,.006,.025,0.0*
20,1,.006,.025,0.0,.02462,-.004341,0.0*
1,1,.006,.02462,-.004341*
20,1,.006,.02462,-.004341,.023492,-.008551,0.0*
1,1,.006,.023492,-.008551*
20,1,.006,.023492,-.008551,.021651,-.0125,0.0*
1,1,.006,.021651,-.0125*
20,1,.006,.021651,-.0125,.019151,-.01607,0.0*
1,1,.006,.019151,-.01607*
20,1,.006,.019151,-.01607,.01607,-.019151,0.0*
1,1,.006,.01607,-.019151*
20,1,.006,.01607,-.019151,.0125,-.021651,0.0*
1,1,.006,.0125,-.021651*
20,1,.006,.0125,-.021651,.008551,-.023492,0.0*
1,1,.006,.008551,-.023492*
20,1,.006,.008551,-.023492,.004341,-.02462,0.0*
1,1,.006,.004341,-.02462*
20,1,.006,.004341,-.02462,0.0,-.025,0.0*
1,1,.006,0.0,-.025*
20,1,.006,0.0,-.025,-.004341,-.02462,0.0*
1,1,.006,-.004341,-.02462*
20,1,.006,-.004341,-.02462,-.008551,-.023492,0.0*
1,1,.006,-.008551,-.023492*
20,1,.006,-.008551,-.023492,-.0125,-.021651,0.0*
1,1,.006,-.0125,-.021651*
20,1,.006,-.0125,-.021651,-.01607,-.019151,0.0*
1,1,.006,-.01607,-.019151*
20,1,.006,-.01607,-.019151,-.019151,-.01607,0.0*
1,1,.006,-.019151,-.01607*
20,1,.006,-.019151,-.01607,-.021651,-.0125,0.0*
1,1,.006,-.021651,-.0125*
20,1,.006,-.021651,-.0125,-.023492,-.008551,0.0*
1,1,.006,-.023492,-.008551*
20,1,.006,-.023492,-.008551,-.02462,-.004341,0.0*
1,1,.006,-.02462,-.004341*
20,1,.006,-.02462,-.004341,-.025,0.0,0.0*
1,1,.006,-.025,0.0*
20,1,.006,-.025,0.0,-.02462,.004341,0.0*
1,1,.006,-.02462,.004341*
20,1,.006,-.02462,.004341,-.023492,.008551,0.0*
1,1,.006,-.023492,.008551*
20,1,.006,-.023492,.008551,-.021651,.0125,0.0*
1,1,.006,-.021651,.0125*
20,1,.006,-.021651,.0125,-.019151,.01607,0.0*
1,1,.006,-.019151,.01607*
20,1,.006,-.019151,.01607,-.01607,.019151,0.0*
1,1,.006,-.01607,.019151*
20,1,.006,-.01607,.019151,-.0125,.021651,0.0*
1,1,.006,-.0125,.021651*
20,1,.006,-.0125,.021651,-.008551,.023492,0.0*
1,1,.006,-.008551,.023492*
20,1,.006,-.008551,.023492,-.004341,.02462,0.0*
1,1,.006,-.004341,.02462*
20,1,.006,-.004341,.02462,0.0,.025,0.0*
1,1,.006,0.0,.025*
20,1,.006,0.0,.025,.004341,.02462,0.0*
1,1,.006,.004341,.02462*
20,1,.006,.004341,.02462,.008551,.023492,0.0*
1,1,.006,.008551,.023492*
20,1,.006,.008551,.023492,.0125,.021651,0.0*
1,1,.006,.0125,.021651*
20,1,.006,.0125,.021651,.01607,.019151,0.0*
1,1,.006,.01607,.019151*
20,1,.006,.01607,.019151,.019151,.01607,0.0*
1,1,.006,.019151,.01607*
20,1,.006,.019151,.01607,.021651,.0125,0.0*
1,1,.006,.021651,.0125*
20,1,.006,.021651,.0125,.023492,.008551,0.0*
1,1,.006,.023492,.008551*
20,1,.006,.023492,.008551,.02462,.004341,0.0*
1,1,.006,.02462,.004341*
20,1,.006,.02462,.004341,.025,0.0,0.0*
1,1,.006,.025,0.0*
1,1,.006,.0125,0.0*
20,1,.006,.0125,0.0,-.0125,0.0,0.0*
1,1,.006,-.0125,0.0*
1,1,.006,0.0,.0125*
20,1,.006,0.0,.0125,0.0,-.0125,0.0*
1,1,.006,0.0,-.0125*
%
%ADD10MACRO10*%
%ADD11C,.006*%
G75*
%LPD*%
G75*
G54D10*
X-106050Y186500D03*
X45000Y66000D03*
X61000Y62000D03*
X60079Y120000D03*
X94000Y69000D03*
X92000Y105000D03*
X86000Y120000D03*
X122068Y20000D03*
X119000Y57000D03*
X123000Y84000D03*
X132000Y100000D03*
Y126000D03*
G54D11*
G01X-151000Y174000D02*
Y274000D01*
X546500D01*
Y174000D01*
X-151000D01*
G01X-139995Y205250D02*
Y217750D01*
X-134105D01*
G01X-136275Y211708D02*
X-139995D01*
G01X-126510Y217750D02*
X-122790D01*
G01X-124650D02*
Y205250D01*
G01X-126510D02*
X-122790D01*
G01X-111320Y211500D02*
X-108220D01*
Y207750D01*
X-109150Y206500D01*
X-110235Y205667D01*
X-111785Y205250D01*
X-113335Y205667D01*
X-114420Y206500D01*
X-115350Y207750D01*
X-115970Y209208D01*
X-116280Y210875D01*
Y212333D01*
X-115970Y213583D01*
X-115350Y215042D01*
X-114420Y216292D01*
X-113490Y217125D01*
X-112250Y217750D01*
X-111165D01*
X-109925Y217333D01*
X-108995Y216500D01*
G01X-103260Y217750D02*
Y208792D01*
X-102640Y206916D01*
X-101400Y205667D01*
X-99850Y205250D01*
X-98300Y205667D01*
X-97060Y206916D01*
X-96440Y208792D01*
Y217750D01*
G01X-90550Y205250D02*
Y217750D01*
X-86675D01*
X-85435Y217125D01*
X-84660Y216292D01*
X-84350Y214625D01*
X-84660Y212958D01*
X-85590Y211917D01*
X-86675Y211292D01*
X-90550D01*
G01X-86675D02*
X-84350Y205250D01*
G01X-71950D02*
X-78150D01*
Y217750D01*
X-71950D01*
G01X-74430Y211708D02*
X-78150D01*
G01X-151000Y199000D02*
X546500D01*
G01X-151000Y224000D02*
X546500D01*
G01X-151000Y249000D02*
X546500D01*
G01X-61100Y224000D02*
Y174000D01*
G01X-37695Y205250D02*
Y217750D01*
X-31805D01*
G01X-33975Y211708D02*
X-37695D01*
G01X-24210Y217750D02*
X-20490D01*
G01X-22350D02*
Y205250D01*
G01X-24210D02*
X-20490D01*
G01X-13515D02*
Y217750D01*
X-6385Y205250D01*
Y217750D01*
G01X590D02*
X4310D01*
G01X2450D02*
Y205250D01*
G01X590D02*
X4310D01*
G01X11595Y206916D02*
X12835Y205875D01*
X14230Y205250D01*
X15470D01*
X16710Y205875D01*
X17640Y206916D01*
X18105Y208375D01*
X17795Y209833D01*
X17020Y211083D01*
X15625Y211917D01*
X13765Y212333D01*
X12680Y213167D01*
X12215Y214625D01*
X12525Y216083D01*
X13300Y217125D01*
X14385Y217750D01*
X15470D01*
X16555Y217333D01*
X17485Y216292D01*
G01X23995Y205250D02*
Y217750D01*
G01X30505D02*
Y205250D01*
G01Y211500D02*
X23995D01*
G01X42750Y205250D02*
X36550D01*
Y217750D01*
X42750D01*
G01X40270Y211708D02*
X36550D01*
G01X48640Y205250D02*
Y217750D01*
X51740D01*
X52980Y217125D01*
X53910Y216292D01*
X54685Y215042D01*
X55305Y213583D01*
X55460Y211500D01*
X55305Y209417D01*
X54685Y207958D01*
X53910Y206708D01*
X52980Y205875D01*
X51740Y205250D01*
X48640D01*
G01X59800Y201083D02*
X69100D01*
G01X73595Y206916D02*
X74835Y205875D01*
X76230Y205250D01*
X77470D01*
X78710Y205875D01*
X79640Y206916D01*
X80105Y208375D01*
X79795Y209833D01*
X79020Y211083D01*
X77625Y211917D01*
X75765Y212333D01*
X74680Y213167D01*
X74215Y214625D01*
X74525Y216083D01*
X75300Y217125D01*
X76385Y217750D01*
X77470D01*
X78555Y217333D01*
X79485Y216292D01*
G01X87390Y217750D02*
X91110D01*
G01X89250D02*
Y205250D01*
G01X87390D02*
X91110D01*
G01X98705Y217750D02*
X104595D01*
X98705Y205250D01*
X104595D01*
G01X117150D02*
X110950D01*
Y217750D01*
X117150D01*
G01X114670Y211708D02*
X110950D01*
G01X0Y0D02*
Y157500D01*
X157500D01*
Y0D01*
X0D01*
G01X21050Y180250D02*
Y192750D01*
X19190Y190250D01*
G01Y180250D02*
X22910D01*
G01X30505Y185458D02*
X31590Y186917D01*
X32520Y187750D01*
X33760Y188167D01*
X34845Y187750D01*
X35620Y186917D01*
X36240Y185667D01*
X36395Y184208D01*
X36240Y182958D01*
X35620Y181708D01*
X34690Y180667D01*
X33605Y180250D01*
X32365Y180667D01*
X31280Y181916D01*
X30660Y183792D01*
X30505Y185875D01*
X30815Y188583D01*
X31280Y190042D01*
X32055Y191500D01*
X33140Y192542D01*
X34225Y192750D01*
X35310Y192333D01*
X36085Y191292D01*
G01X45850Y179833D02*
X45540Y180042D01*
Y180458D01*
X45850Y180667D01*
X46160Y180458D01*
Y180042D01*
X45850Y179833D01*
G01X58250Y192750D02*
X57010Y192333D01*
X56080Y191292D01*
X55460Y190042D01*
X54995Y188375D01*
X54840Y186500D01*
X54995Y184625D01*
X55460Y182958D01*
X56080Y181708D01*
X57010Y180667D01*
X58250Y180250D01*
X59490Y180667D01*
X60420Y181708D01*
X61040Y182958D01*
X61505Y184625D01*
X61660Y186500D01*
X61505Y188375D01*
X61040Y190042D01*
X60420Y191292D01*
X59490Y192333D01*
X58250Y192750D01*
G01X39340Y255250D02*
Y267750D01*
X42440D01*
X43680Y267125D01*
X44610Y266292D01*
X45385Y265042D01*
X46005Y263583D01*
X46160Y261500D01*
X46005Y259417D01*
X45385Y257958D01*
X44610Y256708D01*
X43680Y255875D01*
X42440Y255250D01*
X39340D01*
G01X52050D02*
Y267750D01*
X55925D01*
X57165Y267125D01*
X57940Y266292D01*
X58250Y264625D01*
X57940Y262958D01*
X57010Y261917D01*
X55925Y261292D01*
X52050D01*
G01X55925D02*
X58250Y255250D01*
G01X65690Y267750D02*
X69410D01*
G01X67550D02*
Y255250D01*
G01X65690D02*
X69410D01*
G01X76850Y267750D02*
Y255250D01*
X83050D01*
G01X89250Y267750D02*
Y255250D01*
X95450D01*
G01X120560Y266708D02*
X119630Y267333D01*
X118545Y267750D01*
X117305D01*
X115910Y267125D01*
X114825Y266083D01*
X114050Y264833D01*
X113430Y262750D01*
X113275Y260875D01*
X113585Y259000D01*
X114050Y257750D01*
X114980Y256500D01*
X116065Y255667D01*
X117150Y255250D01*
X118235D01*
X119320Y255667D01*
X120250Y256291D01*
X121025Y257125D01*
G01X126295Y255250D02*
Y267750D01*
G01X132805D02*
Y255250D01*
G01Y261500D02*
X126295D01*
G01X138075Y255250D02*
X141950Y267750D01*
X145825Y255250D01*
G01X144430Y259625D02*
X139470D01*
G01X151250Y255250D02*
Y267750D01*
X155125D01*
X156365Y267125D01*
X157140Y266292D01*
X157450Y264625D01*
X157140Y262958D01*
X156210Y261917D01*
X155125Y261292D01*
X151250D01*
G01X155125D02*
X157450Y255250D01*
G01X166750Y267750D02*
Y255250D01*
G01X163185Y267750D02*
X170315D01*
G01X179150Y254833D02*
X178840Y255042D01*
Y255458D01*
X179150Y255667D01*
X179460Y255458D01*
Y255042D01*
X179150Y254833D01*
G01Y260458D02*
X178840Y260667D01*
Y261083D01*
X179150Y261292D01*
X179460Y261083D01*
Y260667D01*
X179150Y260458D01*
G01X203950Y267750D02*
Y255250D01*
G01X200385Y267750D02*
X207515D01*
G01X216350Y255250D02*
X215110Y255458D01*
X214025Y256291D01*
X213095Y257542D01*
X212475Y259000D01*
X212165Y260667D01*
Y262333D01*
X212475Y264000D01*
X213095Y265458D01*
X214025Y266708D01*
X215110Y267542D01*
X216350Y267750D01*
X217590Y267542D01*
X218675Y266708D01*
X219605Y265458D01*
X220225Y264000D01*
X220535Y262333D01*
Y260667D01*
X220225Y259000D01*
X219605Y257542D01*
X218675Y256291D01*
X217590Y255458D01*
X216350Y255250D01*
G01X225650D02*
Y267750D01*
X229370D01*
X230610Y267125D01*
X231540Y265667D01*
X231850Y264000D01*
X231540Y262333D01*
X230765Y261083D01*
X229370Y260458D01*
X225650D01*
G01X253550Y267750D02*
Y255250D01*
G01X251380Y263583D02*
X255720D01*
G01X265950Y255250D02*
X265020Y255458D01*
X264090Y256291D01*
X263470Y257750D01*
X263160Y259417D01*
X263470Y261083D01*
X264090Y262542D01*
X265020Y263375D01*
X265950Y263583D01*
X266880Y263375D01*
X267810Y262542D01*
X268430Y261083D01*
X268585Y259417D01*
X268430Y257750D01*
X267810Y256291D01*
X266880Y255458D01*
X265950Y255250D01*
G01X291990Y261917D02*
X292610Y262542D01*
X293075Y263583D01*
X293385Y265042D01*
X293075Y266292D01*
X292455Y267125D01*
X291370Y267750D01*
X287185D01*
Y255250D01*
X292300D01*
X293385Y256083D01*
X294005Y257333D01*
X294315Y258792D01*
X294005Y260250D01*
X293075Y261500D01*
X291990Y261917D01*
X287185D01*
G01X303150Y255250D02*
X301910Y255458D01*
X300825Y256291D01*
X299895Y257542D01*
X299275Y259000D01*
X298965Y260667D01*
Y262333D01*
X299275Y264000D01*
X299895Y265458D01*
X300825Y266708D01*
X301910Y267542D01*
X303150Y267750D01*
X304390Y267542D01*
X305475Y266708D01*
X306405Y265458D01*
X307025Y264000D01*
X307335Y262333D01*
Y260667D01*
X307025Y259000D01*
X306405Y257542D01*
X305475Y256291D01*
X304390Y255458D01*
X303150Y255250D01*
G01X315550Y267750D02*
Y255250D01*
G01X311985Y267750D02*
X319115D01*
G01X327950D02*
Y255250D01*
G01X324385Y267750D02*
X331515D01*
G01X340350Y255250D02*
X339110Y255458D01*
X338025Y256291D01*
X337095Y257542D01*
X336475Y259000D01*
X336165Y260667D01*
Y262333D01*
X336475Y264000D01*
X337095Y265458D01*
X338025Y266708D01*
X339110Y267542D01*
X340350Y267750D01*
X341590Y267542D01*
X342675Y266708D01*
X343605Y265458D01*
X344225Y264000D01*
X344535Y262333D01*
Y260667D01*
X344225Y259000D01*
X343605Y257542D01*
X342675Y256291D01*
X341590Y255458D01*
X340350Y255250D01*
G01X348720D02*
Y267750D01*
X352750Y257333D01*
X356780Y267750D01*
Y255250D01*
G01X69875Y230250D02*
X73750Y242750D01*
X77625Y230250D01*
G01X76230Y234625D02*
X71270D01*
G01X83050Y242750D02*
Y230250D01*
X89250D01*
G01X95450Y242750D02*
Y230250D01*
X101650D01*
G01X119940Y242750D02*
Y233792D01*
X120560Y231916D01*
X121800Y230667D01*
X123350Y230250D01*
X124900Y230667D01*
X126140Y231916D01*
X126760Y233792D01*
Y242750D01*
G01X132185Y230250D02*
Y242750D01*
X139315Y230250D01*
Y242750D01*
G01X146290D02*
X150010D01*
G01X148150D02*
Y230250D01*
G01X146290D02*
X150010D01*
G01X160550Y242750D02*
Y230250D01*
G01X156985Y242750D02*
X164115D01*
G01X169695Y231916D02*
X170935Y230875D01*
X172330Y230250D01*
X173570D01*
X174810Y230875D01*
X175740Y231916D01*
X176205Y233375D01*
X175895Y234833D01*
X175120Y236083D01*
X173725Y236917D01*
X171865Y237333D01*
X170780Y238167D01*
X170315Y239625D01*
X170625Y241083D01*
X171400Y242125D01*
X172485Y242750D01*
X173570D01*
X174655Y242333D01*
X175585Y241292D01*
G01X193875Y230250D02*
X197750Y242750D01*
X201625Y230250D01*
G01X200230Y234625D02*
X195270D01*
G01X207050Y230250D02*
Y242750D01*
X210925D01*
X212165Y242125D01*
X212940Y241292D01*
X213250Y239625D01*
X212940Y237958D01*
X212010Y236917D01*
X210925Y236292D01*
X207050D01*
G01X210925D02*
X213250Y230250D01*
G01X225650D02*
X219450D01*
Y242750D01*
X225650D01*
G01X223170Y236708D02*
X219450D01*
G01X245490Y242750D02*
X249210D01*
G01X247350D02*
Y230250D01*
G01X245490D02*
X249210D01*
G01X256185D02*
Y242750D01*
X263315Y230250D01*
Y242750D01*
G01X280520Y230250D02*
Y242750D01*
X284550Y232333D01*
X288580Y242750D01*
Y230250D01*
G01X295090Y242750D02*
X298810D01*
G01X296950D02*
Y230250D01*
G01X295090D02*
X298810D01*
G01X306250Y242750D02*
Y230250D01*
X312450D01*
G01X318495Y231916D02*
X319735Y230875D01*
X321130Y230250D01*
X322370D01*
X323610Y230875D01*
X324540Y231916D01*
X325005Y233375D01*
X324695Y234833D01*
X323920Y236083D01*
X322525Y236917D01*
X320665Y237333D01*
X319580Y238167D01*
X319115Y239625D01*
X319425Y241083D01*
X320200Y242125D01*
X321285Y242750D01*
X322370D01*
X323455Y242333D01*
X324385Y241292D01*
G01X140400Y224000D02*
Y174000D01*
G01X169540Y205250D02*
Y217750D01*
X172640D01*
X173880Y217125D01*
X174810Y216292D01*
X175585Y215042D01*
X176205Y213583D01*
X176360Y211500D01*
X176205Y209417D01*
X175585Y207958D01*
X174810Y206708D01*
X173880Y205875D01*
X172640Y205250D01*
X169540D01*
G01X182250D02*
Y217750D01*
X186125D01*
X187365Y217125D01*
X188140Y216292D01*
X188450Y214625D01*
X188140Y212958D01*
X187210Y211917D01*
X186125Y211292D01*
X182250D01*
G01X186125D02*
X188450Y205250D01*
G01X195890Y217750D02*
X199610D01*
G01X197750D02*
Y205250D01*
G01X195890D02*
X199610D01*
G01X207050Y217750D02*
Y205250D01*
X213250D01*
G01X219450Y217750D02*
Y205250D01*
X225650D01*
G01X238050D02*
X231850D01*
Y217750D01*
X238050D01*
G01X235570Y211708D02*
X231850D01*
G01X243940Y205250D02*
Y217750D01*
X247040D01*
X248280Y217125D01*
X249210Y216292D01*
X249985Y215042D01*
X250605Y213583D01*
X250760Y211500D01*
X250605Y209417D01*
X249985Y207958D01*
X249210Y206708D01*
X248280Y205875D01*
X247040Y205250D01*
X243940D01*
G01X255100Y201083D02*
X264400D01*
G01X268895Y206916D02*
X270135Y205875D01*
X271530Y205250D01*
X272770D01*
X274010Y205875D01*
X274940Y206916D01*
X275405Y208375D01*
X275095Y209833D01*
X274320Y211083D01*
X272925Y211917D01*
X271065Y212333D01*
X269980Y213167D01*
X269515Y214625D01*
X269825Y216083D01*
X270600Y217125D01*
X271685Y217750D01*
X272770D01*
X273855Y217333D01*
X274785Y216292D01*
G01X282690Y217750D02*
X286410D01*
G01X284550D02*
Y205250D01*
G01X282690D02*
X286410D01*
G01X294005Y217750D02*
X299895D01*
X294005Y205250D01*
X299895D01*
G01X312450D02*
X306250D01*
Y217750D01*
X312450D01*
G01X309970Y211708D02*
X306250D01*
G01X239135Y184417D02*
X243165D01*
G01X341900Y224000D02*
Y174000D01*
G01X371350Y180250D02*
Y192750D01*
X375070D01*
X376310Y192125D01*
X377240Y190667D01*
X377550Y189000D01*
X377240Y187333D01*
X376465Y186083D01*
X375070Y185458D01*
X371350D01*
G01X383750Y192750D02*
Y180250D01*
X389950D01*
G01X395375D02*
X399250Y192750D01*
X403125Y180250D01*
G01X401730Y184625D02*
X396770D01*
G01X411650Y192750D02*
Y180250D01*
G01X408085Y192750D02*
X415215D01*
G01X427150Y180250D02*
X420950D01*
Y192750D01*
X427150D01*
G01X424670Y186708D02*
X420950D01*
G01X433040Y180250D02*
Y192750D01*
X436140D01*
X437380Y192125D01*
X438310Y191292D01*
X439085Y190042D01*
X439705Y188583D01*
X439860Y186500D01*
X439705Y184417D01*
X439085Y182958D01*
X438310Y181708D01*
X437380Y180875D01*
X436140Y180250D01*
X433040D01*
G01X371350Y205250D02*
Y217750D01*
X375070D01*
X376310Y217125D01*
X377240Y215667D01*
X377550Y214000D01*
X377240Y212333D01*
X376465Y211083D01*
X375070Y210458D01*
X371350D01*
G01X383750Y217750D02*
Y205250D01*
X389950D01*
G01X395375D02*
X399250Y217750D01*
X403125Y205250D01*
G01X401730Y209625D02*
X396770D01*
G01X411650Y217750D02*
Y205250D01*
G01X408085Y217750D02*
X415215D01*
G01X427150Y205250D02*
X420950D01*
Y217750D01*
X427150D01*
G01X424670Y211708D02*
X420950D01*
G01X433040Y205250D02*
Y217750D01*
X436140D01*
X437380Y217125D01*
X438310Y216292D01*
X439085Y215042D01*
X439705Y213583D01*
X439860Y211500D01*
X439705Y209417D01*
X439085Y207958D01*
X438310Y206708D01*
X437380Y205875D01*
X436140Y205250D01*
X433040D01*
G01X501550Y180250D02*
Y192750D01*
X499690Y190250D01*
G01Y180250D02*
X503410D01*
G01X513950D02*
Y192750D01*
X512090Y190250D01*
G01Y180250D02*
X515810D01*
G01X469000Y224000D02*
Y174000D01*
G01X495350Y205250D02*
X494110Y205458D01*
X493025Y206291D01*
X492095Y207542D01*
X491475Y209000D01*
X491165Y210667D01*
Y212333D01*
X491475Y214000D01*
X492095Y215458D01*
X493025Y216708D01*
X494110Y217542D01*
X495350Y217750D01*
X496590Y217542D01*
X497675Y216708D01*
X498605Y215458D01*
X499225Y214000D01*
X499535Y212333D01*
Y210667D01*
X499225Y209000D01*
X498605Y207542D01*
X497675Y206291D01*
X496590Y205458D01*
X495350Y205250D01*
G01X496590Y208583D02*
X498450Y205250D01*
G01X507750Y217750D02*
Y205250D01*
G01X504185Y217750D02*
X511315D01*
G01X520150Y205250D02*
Y210875D01*
X517050Y217750D01*
G01X523250D02*
X520150Y210875D01*
M02*
