G04 ================== begin FILE IDENTIFICATION RECORD ==================*
G04 Layout Name:  C:/Facultate/Proiect Apd OrCad/OrCAD/PROIECT_APD_Ispas_pcb.brd*
G04 Film Name:    SSTP*
G04 File Format:  Gerber RS274X*
G04 File Origin:  Cadence Allegro 25.1-P001*
G04 Origin Date:  Mon Jan 26 01:14:13 2026*
G04 *
G04 Layer:  REF DES/SILKSCREEN_TOP*
G04 Layer:  PACKAGE GEOMETRY/SILKSCREEN_TOP*
G04 Layer:  BOARD GEOMETRY/SILKSCREEN_TOP*
G04 *
G04 Offset:    (0.00 0.00)*
G04 Mirror:    No*
G04 Mode:      Positive*
G04 Rotation:  0*
G04 FullContactRelief:  No*
G04 UndefLineWidth:     6.00*
G04 ================== end FILE IDENTIFICATION RECORD ====================*
%FSLAX25Y25*MOIN*%
%IR0*IPPOS*OFA0.00000B0.00000*MIA0B0*SFA1.00000B1.00000*%
%ADD10C,.00079*%
%ADD11C,.006*%
%ADD12C,.00197*%
%ADD13C,.00787*%
G75*
%LPD*%
G75*
G54D10*
G01X18668Y22441D02*
Y23425D01*
X19078D01*
X19209Y23376D01*
X19291Y23310D01*
X19324Y23179D01*
X19291Y23048D01*
X19193Y22966D01*
X19078Y22917D01*
X18668D01*
G01X19078D02*
X19324Y22441D01*
G01X20328D02*
X19672D01*
Y23425D01*
X20328D01*
G01X20066Y22949D02*
X19672D01*
G01X20692Y22441D02*
Y23425D01*
X21316D01*
G01X21086Y22949D02*
X20692D01*
G01X136168Y139941D02*
Y140925D01*
X136578D01*
X136709Y140876D01*
X136791Y140810D01*
X136824Y140679D01*
X136791Y140548D01*
X136693Y140466D01*
X136578Y140417D01*
X136168D01*
G01X136578D02*
X136824Y139941D01*
G01X137828D02*
X137172D01*
Y140925D01*
X137828D01*
G01X137566Y140449D02*
X137172D01*
G01X138192Y139941D02*
Y140925D01*
X138816D01*
G01X138586Y140449D02*
X138192D01*
G54D11*
G01X71250Y44500D02*
Y79500D01*
X84750D01*
Y44500D01*
X71250D01*
G01X73000Y79500D02*
Y44500D01*
G01X75750Y77000D02*
G03I-1000J0D01*
G01X10450Y45683D02*
X15450D01*
Y44642D01*
X15200Y44308D01*
X14867Y44100D01*
X14200Y44017D01*
X13533Y44100D01*
X13117Y44350D01*
X12867Y44642D01*
Y45683D01*
G01Y44642D02*
X10450Y44017D01*
G01Y41350D02*
X15450D01*
X14450Y41850D01*
G01X10450D02*
Y40850D01*
G01Y37850D02*
X15450D01*
X14450Y38350D01*
G01X10450D02*
Y37350D01*
G01X18067Y69033D02*
X17817Y69283D01*
X17525Y69450D01*
X17192D01*
X16817Y69200D01*
X16525Y68783D01*
X16317Y68283D01*
X16150Y67450D01*
X16108Y66700D01*
X16192Y65950D01*
X16317Y65450D01*
X16567Y64950D01*
X16858Y64617D01*
X17150Y64450D01*
X17442D01*
X17733Y64617D01*
X17983Y64867D01*
X18192Y65200D01*
G01X19858Y68617D02*
X20108Y69117D01*
X20400Y69367D01*
X20733Y69450D01*
X21150Y69283D01*
X21442Y68867D01*
X21525Y68367D01*
X21483Y67867D01*
X21317Y67450D01*
X20483Y66617D01*
X20108Y66033D01*
X19858Y65200D01*
X19775Y64450D01*
X21525D01*
G01X32200Y73250D02*
X16200D01*
G01D02*
Y80750D01*
G01D02*
X32200D01*
G01X17250Y86800D02*
Y102800D01*
G01X24750Y86800D02*
X17250D01*
G01X9500Y109500D02*
X18500D01*
G01X9500Y131500D02*
Y109500D01*
G01X11000Y102583D02*
X16000D01*
Y101542D01*
X15750Y101208D01*
X15417Y101000D01*
X14750Y100917D01*
X14083Y101000D01*
X13667Y101250D01*
X13417Y101542D01*
Y102583D01*
G01Y101542D02*
X11000Y100917D01*
G01Y98250D02*
X16000D01*
X15000Y98750D01*
G01X11000D02*
Y97750D01*
G01X15167Y95542D02*
X15667Y95292D01*
X15917Y95000D01*
X16000Y94667D01*
X15833Y94250D01*
X15417Y93958D01*
X14917Y93875D01*
X14417Y93917D01*
X14000Y94083D01*
X13167Y94917D01*
X12583Y95292D01*
X11750Y95542D01*
X11000Y95625D01*
Y93875D01*
G01X17250Y102800D02*
X24750D01*
G01X26200Y140250D02*
X10200D01*
G01D02*
Y147750D01*
G01D02*
X26200D01*
G01X12000Y137583D02*
X11500Y137375D01*
X11167Y137125D01*
X11000Y136833D01*
X11167Y136500D01*
X11500Y136250D01*
X12000Y136000D01*
X12667Y135917D01*
X16000D01*
G01X11000Y133250D02*
X16000D01*
X15000Y133750D01*
G01X11000D02*
Y132750D01*
G01X18500Y131500D02*
X9500D01*
G01X24480Y14500D02*
X25120D01*
G01X24800D02*
Y12000D01*
G01X24480D02*
X25120D01*
G01X26600Y12292D02*
X26733Y12125D01*
X26920Y12000D01*
X27080D01*
X27240Y12083D01*
X27347Y12208D01*
X27400Y12375D01*
X27373Y12625D01*
X27267Y12750D01*
X26787Y13000D01*
X26680Y13292D01*
X26733Y13500D01*
X26840Y13625D01*
X27000Y13667D01*
X27160Y13625D01*
X27320Y13500D01*
G01X28720Y11167D02*
Y13667D01*
G01Y13292D02*
X28853Y13500D01*
X28987Y13625D01*
X29200Y13667D01*
X29387Y13625D01*
X29573Y13417D01*
X29653Y13125D01*
X29680Y12833D01*
X29653Y12542D01*
X29573Y12250D01*
X29413Y12083D01*
X29200Y12000D01*
X29013Y12042D01*
X28827Y12167D01*
X28720Y12333D01*
G01X31880Y12000D02*
Y13667D01*
G01Y13375D02*
X31773Y13542D01*
X31613Y13625D01*
X31427Y13667D01*
X31240Y13583D01*
X31080Y13417D01*
X30973Y13167D01*
X30920Y12833D01*
X30973Y12500D01*
X31080Y12250D01*
X31240Y12083D01*
X31427Y12000D01*
X31613Y12042D01*
X31773Y12167D01*
X31880Y12333D01*
G01X33200Y12292D02*
X33333Y12125D01*
X33520Y12000D01*
X33680D01*
X33840Y12083D01*
X33947Y12208D01*
X34000Y12375D01*
X33973Y12625D01*
X33867Y12750D01*
X33387Y13000D01*
X33280Y13292D01*
X33333Y13500D01*
X33440Y13625D01*
X33600Y13667D01*
X33760Y13625D01*
X33920Y13500D01*
G01X37307Y12000D02*
Y14500D01*
X38000Y12417D01*
X38693Y14500D01*
Y12000D01*
G01X40200Y13667D02*
Y12000D01*
G01Y14333D02*
X40147Y14375D01*
Y14458D01*
X40200Y14500D01*
X40253Y14458D01*
Y14375D01*
X40200Y14333D01*
G01X41947Y12000D02*
Y14500D01*
G01Y13292D02*
X42080Y13500D01*
X42213Y13625D01*
X42427Y13667D01*
X42587Y13625D01*
X42773Y13458D01*
X42853Y13208D01*
Y12000D01*
G01X45080D02*
Y13667D01*
G01Y13375D02*
X44973Y13542D01*
X44813Y13625D01*
X44627Y13667D01*
X44440Y13583D01*
X44280Y13417D01*
X44173Y13167D01*
X44120Y12833D01*
X44173Y12500D01*
X44280Y12250D01*
X44440Y12083D01*
X44627Y12000D01*
X44813Y12042D01*
X44973Y12167D01*
X45080Y12333D01*
G01X46800Y13667D02*
Y12000D01*
G01Y14333D02*
X46747Y14375D01*
Y14458D01*
X46800Y14500D01*
X46853Y14458D01*
Y14375D01*
X46800Y14333D01*
G01X51520Y12000D02*
Y14500D01*
X50533Y12708D01*
X51867D01*
G01X52813Y12500D02*
X52973Y12208D01*
X53187Y12042D01*
X53427Y12000D01*
X53640Y12042D01*
X53853Y12250D01*
X53987Y12500D01*
X54013Y12750D01*
X53960Y13042D01*
X53773Y13250D01*
X53587Y13333D01*
X53347D01*
G01X53587D02*
X53747Y13458D01*
X53880Y13667D01*
X53933Y13917D01*
X53880Y14167D01*
X53747Y14375D01*
X53507Y14500D01*
X53267Y14458D01*
X53027Y14292D01*
G01X55013Y12500D02*
X55173Y12208D01*
X55387Y12042D01*
X55627Y12000D01*
X55840Y12042D01*
X56053Y12250D01*
X56187Y12500D01*
X56213Y12750D01*
X56160Y13042D01*
X55973Y13250D01*
X55787Y13333D01*
X55547D01*
G01X55787D02*
X55947Y13458D01*
X56080Y13667D01*
X56133Y13917D01*
X56080Y14167D01*
X55947Y14375D01*
X55707Y14500D01*
X55467Y14458D01*
X55227Y14292D01*
G01X57133Y12000D02*
X57800Y14500D01*
X58467Y12000D01*
G01X58227Y12875D02*
X57373D01*
G01X19250Y29800D02*
Y45800D01*
G01X26750D02*
Y29800D01*
G01D02*
X19250D01*
G01X35200Y53250D02*
X19200D01*
G01D02*
Y60750D01*
G01D02*
X35200D01*
G01D02*
Y53250D01*
G01X41417Y46000D02*
Y51000D01*
X42458D01*
X42792Y50750D01*
X43000Y50417D01*
X43083Y49750D01*
X43000Y49083D01*
X42750Y48667D01*
X42458Y48417D01*
X41417D01*
G01X42458D02*
X43083Y46000D01*
G01X44833Y46750D02*
X45083Y46333D01*
X45375Y46083D01*
X45750Y46000D01*
X46125Y46167D01*
X46417Y46500D01*
X46625Y47083D01*
X46667Y47750D01*
X46583Y48417D01*
X46375Y48833D01*
X46083Y49167D01*
X45792Y49250D01*
X45500Y49167D01*
X45125Y48833D01*
X45250Y51000D01*
X46375D01*
G01X57200Y53250D02*
X41200D01*
G01D02*
Y60750D01*
G01D02*
X57200D01*
G01X19250Y45800D02*
X26750D01*
G01X32200Y80750D02*
Y73250D01*
G01X36417Y64000D02*
Y69000D01*
X37458D01*
X37792Y68750D01*
X38000Y68417D01*
X38083Y67750D01*
X38000Y67083D01*
X37750Y66667D01*
X37458Y66417D01*
X36417D01*
G01X37458D02*
X38083Y64000D01*
G01X39833Y65000D02*
X40083Y64417D01*
X40417Y64083D01*
X40792Y64000D01*
X41125Y64083D01*
X41458Y64500D01*
X41667Y65000D01*
X41708Y65500D01*
X41625Y66083D01*
X41333Y66500D01*
X41042Y66667D01*
X40667D01*
G01X41042D02*
X41292Y66917D01*
X41500Y67333D01*
X41583Y67833D01*
X41500Y68333D01*
X41292Y68750D01*
X40917Y69000D01*
X40542Y68917D01*
X40167Y68583D01*
G01X55200Y73250D02*
X39200D01*
G01D02*
Y80750D01*
G01D02*
X55200D01*
G01X24750Y102800D02*
Y86800D01*
G01X18500Y109500D02*
Y131500D01*
G01X20000Y124583D02*
X25000D01*
Y123542D01*
X24750Y123208D01*
X24417Y123000D01*
X23750Y122917D01*
X23083Y123000D01*
X22667Y123250D01*
X22417Y123542D01*
Y124583D01*
G01Y123542D02*
X20000Y122917D01*
G01Y120250D02*
X25000D01*
X24000Y120750D01*
G01X20000D02*
Y119750D01*
G01X27250Y110800D02*
Y126800D01*
G01X34750D02*
Y110800D01*
G01D02*
X27250D01*
G01X22167Y135583D02*
X21917Y135833D01*
X21625Y136000D01*
X21292D01*
X20917Y135750D01*
X20625Y135333D01*
X20417Y134833D01*
X20250Y134000D01*
X20208Y133250D01*
X20292Y132500D01*
X20417Y132000D01*
X20667Y131500D01*
X20958Y131167D01*
X21250Y131000D01*
X21542D01*
X21833Y131167D01*
X22083Y131417D01*
X22292Y131750D01*
G01X24750Y131000D02*
Y136000D01*
X24250Y135000D01*
G01Y131000D02*
X25250D01*
G01X26200Y147750D02*
Y140250D01*
G01X27250Y126800D02*
X34750D01*
G01X37417Y124000D02*
Y129000D01*
X38458D01*
X38792Y128750D01*
X39000Y128417D01*
X39083Y127750D01*
X39000Y127083D01*
X38750Y126667D01*
X38458Y126417D01*
X37417D01*
G01X38458D02*
X39083Y124000D01*
G01X40958Y128167D02*
X41208Y128667D01*
X41500Y128917D01*
X41833Y129000D01*
X42250Y128833D01*
X42542Y128417D01*
X42625Y127917D01*
X42583Y127417D01*
X42417Y127000D01*
X41583Y126167D01*
X41208Y125583D01*
X40958Y124750D01*
X40875Y124000D01*
X42625D01*
G01X48200Y134250D02*
X32200D01*
G01D02*
Y141750D01*
G01D02*
X48200D01*
G01X59317Y16450D02*
Y21450D01*
X60358D01*
X60692Y21200D01*
X60900Y20867D01*
X60983Y20200D01*
X60900Y19533D01*
X60650Y19117D01*
X60358Y18867D01*
X59317D01*
G01X60358D02*
X60983Y16450D01*
G01X63650D02*
Y21450D01*
X63150Y20450D01*
G01Y16450D02*
X64150D01*
G01X67150Y21450D02*
X66817Y21283D01*
X66567Y20867D01*
X66400Y20367D01*
X66275Y19700D01*
X66233Y18950D01*
X66275Y18200D01*
X66400Y17533D01*
X66567Y17033D01*
X66817Y16617D01*
X67150Y16450D01*
X67483Y16617D01*
X67733Y17033D01*
X67900Y17533D01*
X68025Y18200D01*
X68067Y18950D01*
X68025Y19700D01*
X67900Y20367D01*
X67733Y20867D01*
X67483Y21283D01*
X67150Y21450D01*
G01X75200Y25250D02*
X59200D01*
G01D02*
Y32750D01*
G01X75200D02*
Y25250D01*
G01X57200Y60750D02*
Y53250D01*
G01X59200Y32750D02*
X75200D01*
G01X58067Y87033D02*
X57817Y87283D01*
X57525Y87450D01*
X57192D01*
X56817Y87200D01*
X56525Y86783D01*
X56317Y86283D01*
X56150Y85450D01*
X56108Y84700D01*
X56192Y83950D01*
X56317Y83450D01*
X56567Y82950D01*
X56858Y82617D01*
X57150Y82450D01*
X57442D01*
X57733Y82617D01*
X57983Y82867D01*
X58192Y83200D01*
G01X59733Y83450D02*
X59983Y82867D01*
X60317Y82533D01*
X60692Y82450D01*
X61025Y82533D01*
X61358Y82950D01*
X61567Y83450D01*
X61608Y83950D01*
X61525Y84533D01*
X61233Y84950D01*
X60942Y85117D01*
X60567D01*
G01X60942D02*
X61192Y85367D01*
X61400Y85783D01*
X61483Y86283D01*
X61400Y86783D01*
X61192Y87200D01*
X60817Y87450D01*
X60442Y87367D01*
X60067Y87033D01*
G01X72200Y91250D02*
X56200D01*
G01D02*
Y98750D01*
G01X72200D02*
Y91250D01*
G01X55200Y80750D02*
Y73250D01*
G01X70463Y83500D02*
Y81708D01*
X70570Y81333D01*
X70783Y81083D01*
X71050Y81000D01*
X71317Y81083D01*
X71530Y81333D01*
X71637Y81708D01*
Y83500D01*
G01X73250Y81000D02*
Y83500D01*
X72930Y83000D01*
G01Y81000D02*
X73570D01*
G01X56200Y98750D02*
X72200D01*
G01X56317Y99450D02*
Y104450D01*
X57358D01*
X57692Y104200D01*
X57900Y103867D01*
X57983Y103200D01*
X57900Y102533D01*
X57650Y102117D01*
X57358Y101867D01*
X56317D01*
G01X57358D02*
X57983Y99450D01*
G01X61150D02*
Y104450D01*
X59608Y100867D01*
X61692D01*
G01X72200Y108250D02*
X56200D01*
G01D02*
Y115750D01*
G01D02*
X72200D01*
G01D02*
Y108250D01*
G01X48200Y141750D02*
Y134250D01*
G01X99317Y16450D02*
Y21450D01*
X100358D01*
X100692Y21200D01*
X100900Y20867D01*
X100983Y20200D01*
X100900Y19533D01*
X100650Y19117D01*
X100358Y18867D01*
X99317D01*
G01X100358D02*
X100983Y16450D01*
G01X103650D02*
Y21450D01*
X103150Y20450D01*
G01Y16450D02*
X104150D01*
G01X106233Y17450D02*
X106483Y16867D01*
X106817Y16533D01*
X107192Y16450D01*
X107525Y16533D01*
X107858Y16950D01*
X108067Y17450D01*
X108108Y17950D01*
X108025Y18533D01*
X107733Y18950D01*
X107442Y19117D01*
X107067D01*
G01X107442D02*
X107692Y19367D01*
X107900Y19783D01*
X107983Y20283D01*
X107900Y20783D01*
X107692Y21200D01*
X107317Y21450D01*
X106942Y21367D01*
X106567Y21033D01*
G01X115200Y25250D02*
X99200D01*
G01D02*
Y32750D01*
G01X94167Y40583D02*
X93917Y40833D01*
X93625Y41000D01*
X93292D01*
X92917Y40750D01*
X92625Y40333D01*
X92417Y39833D01*
X92250Y39000D01*
X92208Y38250D01*
X92292Y37500D01*
X92417Y37000D01*
X92667Y36500D01*
X92958Y36167D01*
X93250Y36000D01*
X93542D01*
X93833Y36167D01*
X94083Y36417D01*
X94292Y36750D01*
G01X96667Y36000D02*
X96750Y37083D01*
X96875Y38000D01*
X97042Y38833D01*
X97250Y39750D01*
X97583Y41000D01*
X95917D01*
G01X115200Y38250D02*
X99200D01*
G01D02*
Y45750D01*
G01D02*
X115200D01*
G01X99417Y47000D02*
Y52000D01*
X100458D01*
X100792Y51750D01*
X101000Y51417D01*
X101083Y50750D01*
X101000Y50083D01*
X100750Y49667D01*
X100458Y49417D01*
X99417D01*
G01X100458D02*
X101083Y47000D01*
G01X103667D02*
X103750Y48083D01*
X103875Y49000D01*
X104042Y49833D01*
X104250Y50750D01*
X104583Y52000D01*
X102917D01*
G01X115200Y53250D02*
X99200D01*
G01D02*
Y60750D01*
G01D02*
X115200D01*
G01X99200Y32750D02*
X115200D01*
G01X90067Y86033D02*
X89817Y86283D01*
X89525Y86450D01*
X89192D01*
X88817Y86200D01*
X88525Y85783D01*
X88317Y85283D01*
X88150Y84450D01*
X88108Y83700D01*
X88192Y82950D01*
X88317Y82450D01*
X88567Y81950D01*
X88858Y81617D01*
X89150Y81450D01*
X89442D01*
X89733Y81617D01*
X89983Y81867D01*
X90192Y82200D01*
G01X91733D02*
X91983Y81783D01*
X92275Y81533D01*
X92650Y81450D01*
X93025Y81617D01*
X93317Y81950D01*
X93525Y82533D01*
X93567Y83200D01*
X93483Y83867D01*
X93275Y84283D01*
X92983Y84617D01*
X92692Y84700D01*
X92400Y84617D01*
X92025Y84283D01*
X92150Y86450D01*
X93275D01*
G01X104200Y90250D02*
X88200D01*
G01D02*
Y97750D01*
G01X104200D02*
Y90250D01*
G01X99417Y68000D02*
Y73000D01*
X100458D01*
X100792Y72750D01*
X101000Y72417D01*
X101083Y71750D01*
X101000Y71083D01*
X100750Y70667D01*
X100458Y70417D01*
X99417D01*
G01X100458D02*
X101083Y68000D01*
G01X103042Y68583D02*
X103333Y68167D01*
X103667Y68000D01*
X104000Y68167D01*
X104292Y68667D01*
X104500Y69417D01*
X104583Y70167D01*
Y71083D01*
X104500Y71833D01*
X104292Y72500D01*
X104042Y72833D01*
X103750Y73000D01*
X103417Y72833D01*
X103167Y72500D01*
X103000Y72000D01*
X102917Y71333D01*
X103000Y70750D01*
X103208Y70167D01*
X103458Y69833D01*
X103750Y69750D01*
X104083Y69917D01*
X104333Y70333D01*
X104583Y71083D01*
G01X115200Y74250D02*
X99200D01*
G01D02*
Y81750D01*
G01D02*
X115200D01*
G01X88200Y97750D02*
X104200D01*
G01X88317Y99450D02*
Y104450D01*
X89358D01*
X89692Y104200D01*
X89900Y103867D01*
X89983Y103200D01*
X89900Y102533D01*
X89650Y102117D01*
X89358Y101867D01*
X88317D01*
G01X89358D02*
X89983Y99450D01*
G01X91858Y101533D02*
X92150Y102117D01*
X92400Y102450D01*
X92733Y102617D01*
X93025Y102450D01*
X93233Y102117D01*
X93400Y101617D01*
X93442Y101033D01*
X93400Y100533D01*
X93233Y100033D01*
X92983Y99617D01*
X92692Y99450D01*
X92358Y99617D01*
X92067Y100117D01*
X91900Y100867D01*
X91858Y101700D01*
X91942Y102783D01*
X92067Y103367D01*
X92275Y103950D01*
X92567Y104367D01*
X92858Y104450D01*
X93150Y104283D01*
X93358Y103867D01*
G01X104200Y108250D02*
X88200D01*
G01D02*
Y115750D01*
G01D02*
X104200D01*
G01D02*
Y108250D01*
G01X130000Y37583D02*
X129500Y37375D01*
X129167Y37125D01*
X129000Y36833D01*
X129167Y36500D01*
X129500Y36250D01*
X130000Y36000D01*
X130667Y35917D01*
X134000D01*
G01X129000Y32750D02*
X134000D01*
X130417Y34292D01*
Y32208D01*
G01X135500Y15500D02*
X144500D01*
G01X135500Y37500D02*
Y15500D01*
G01X115200Y32750D02*
Y25250D01*
G01X128067Y49033D02*
X127817Y49283D01*
X127525Y49450D01*
X127192D01*
X126817Y49200D01*
X126525Y48783D01*
X126317Y48283D01*
X126150Y47450D01*
X126108Y46700D01*
X126192Y45950D01*
X126317Y45450D01*
X126567Y44950D01*
X126858Y44617D01*
X127150Y44450D01*
X127442D01*
X127733Y44617D01*
X127983Y44867D01*
X128192Y45200D01*
G01X129858Y46533D02*
X130150Y47117D01*
X130400Y47450D01*
X130733Y47617D01*
X131025Y47450D01*
X131233Y47117D01*
X131400Y46617D01*
X131442Y46033D01*
X131400Y45533D01*
X131233Y45033D01*
X130983Y44617D01*
X130692Y44450D01*
X130358Y44617D01*
X130067Y45117D01*
X129900Y45867D01*
X129858Y46700D01*
X129942Y47783D01*
X130067Y48367D01*
X130275Y48950D01*
X130567Y49367D01*
X130858Y49450D01*
X131150Y49283D01*
X131358Y48867D01*
G01X142200Y53250D02*
X126200D01*
G01D02*
Y60750D01*
G01D02*
X142200D01*
G01X115200Y45750D02*
Y38250D01*
G01X144500Y37500D02*
X135500D01*
G01X115200Y60750D02*
Y53250D01*
G01X114167Y88583D02*
X113917Y88833D01*
X113625Y89000D01*
X113292D01*
X112917Y88750D01*
X112625Y88333D01*
X112417Y87833D01*
X112250Y87000D01*
X112208Y86250D01*
X112292Y85500D01*
X112417Y85000D01*
X112667Y84500D01*
X112958Y84167D01*
X113250Y84000D01*
X113542D01*
X113833Y84167D01*
X114083Y84417D01*
X114292Y84750D01*
G01X116750Y84000D02*
X117042Y84083D01*
X117375Y84333D01*
X117583Y84750D01*
X117667Y85333D01*
X117583Y85917D01*
X117333Y86417D01*
X116958Y86667D01*
X116542D01*
X116292Y86833D01*
X116083Y87250D01*
X116000Y87833D01*
X116125Y88417D01*
X116417Y88833D01*
X116750Y89000D01*
X117083Y88833D01*
X117375Y88417D01*
X117500Y87833D01*
X117417Y87250D01*
X117208Y86833D01*
X116958Y86667D01*
X116542D01*
X116167Y86417D01*
X115917Y85917D01*
X115833Y85333D01*
X115917Y84750D01*
X116125Y84333D01*
X116458Y84083D01*
X116750Y84000D01*
G01X128200Y90250D02*
X112200D01*
G01D02*
Y97750D01*
G01X128200D02*
Y90250D01*
G01X135500Y82500D02*
X144500D01*
G01X135500Y104500D02*
Y82500D01*
G01X124000Y76083D02*
X123500Y75875D01*
X123167Y75625D01*
X123000Y75333D01*
X123167Y75000D01*
X123500Y74750D01*
X124000Y74500D01*
X124667Y74417D01*
X128000D01*
G01X123750Y72667D02*
X123333Y72417D01*
X123083Y72125D01*
X123000Y71750D01*
X123167Y71375D01*
X123500Y71083D01*
X124083Y70875D01*
X124750Y70833D01*
X125417Y70917D01*
X125833Y71125D01*
X126167Y71417D01*
X126250Y71708D01*
X126167Y72000D01*
X125833Y72375D01*
X128000Y72250D01*
Y71125D01*
G01X115200Y81750D02*
Y74250D01*
G01X112200Y97750D02*
X128200D01*
G01X127700Y104383D02*
X127200Y104175D01*
X126867Y103925D01*
X126700Y103633D01*
X126867Y103300D01*
X127200Y103050D01*
X127700Y102800D01*
X128367Y102717D01*
X131700D01*
G01X130867Y100842D02*
X131367Y100592D01*
X131617Y100300D01*
X131700Y99967D01*
X131533Y99550D01*
X131117Y99258D01*
X130617Y99175D01*
X130117Y99217D01*
X129700Y99383D01*
X128867Y100217D01*
X128283Y100592D01*
X127450Y100842D01*
X126700Y100925D01*
Y99175D01*
G01X144500Y104500D02*
X135500D01*
G01Y108500D02*
X144500D01*
G01X135500Y130500D02*
Y108500D01*
G01X112317Y99450D02*
Y104450D01*
X113358D01*
X113692Y104200D01*
X113900Y103867D01*
X113983Y103200D01*
X113900Y102533D01*
X113650Y102117D01*
X113358Y101867D01*
X112317D01*
G01X113358D02*
X113983Y99450D01*
G01X116650D02*
X116942Y99533D01*
X117275Y99783D01*
X117483Y100200D01*
X117567Y100783D01*
X117483Y101367D01*
X117233Y101867D01*
X116858Y102117D01*
X116442D01*
X116192Y102283D01*
X115983Y102700D01*
X115900Y103283D01*
X116025Y103867D01*
X116317Y104283D01*
X116650Y104450D01*
X116983Y104283D01*
X117275Y103867D01*
X117400Y103283D01*
X117317Y102700D01*
X117108Y102283D01*
X116858Y102117D01*
X116442D01*
X116067Y101867D01*
X115817Y101367D01*
X115733Y100783D01*
X115817Y100200D01*
X116025Y99783D01*
X116358Y99533D01*
X116650Y99450D01*
G01X128200Y108250D02*
X112200D01*
G01D02*
Y115750D01*
G01D02*
X128200D01*
G01D02*
Y108250D01*
G01X130000Y135583D02*
X129500Y135375D01*
X129167Y135125D01*
X129000Y134833D01*
X129167Y134500D01*
X129500Y134250D01*
X130000Y134000D01*
X130667Y133917D01*
X134000D01*
G01X130000Y132167D02*
X129417Y131917D01*
X129083Y131583D01*
X129000Y131208D01*
X129083Y130875D01*
X129500Y130542D01*
X130000Y130333D01*
X130500Y130292D01*
X131083Y130375D01*
X131500Y130667D01*
X131667Y130958D01*
Y131333D01*
G01Y130958D02*
X131917Y130708D01*
X132333Y130500D01*
X132833Y130417D01*
X133333Y130500D01*
X133750Y130708D01*
X134000Y131083D01*
X133917Y131458D01*
X133583Y131833D01*
G01X144500Y130500D02*
X135500D01*
G01X144500Y15500D02*
Y37500D01*
G01X142200Y60750D02*
Y53250D01*
G01X144500Y82500D02*
Y104500D01*
G01Y108500D02*
Y130500D01*
G54D12*
G01X61298Y144236D02*
Y146205D01*
G01X62677D02*
Y144236D01*
G01Y145220D02*
X61298D01*
G01X63602Y146205D02*
X64389D01*
G01X63995D02*
Y144236D01*
G01X63602D02*
X64389D01*
G01X66200Y145220D02*
X66857D01*
Y144630D01*
X66660Y144433D01*
X66430Y144302D01*
X66102Y144236D01*
X65774Y144302D01*
X65544Y144433D01*
X65347Y144630D01*
X65216Y144860D01*
X65150Y145122D01*
Y145352D01*
X65216Y145549D01*
X65347Y145778D01*
X65544Y145975D01*
X65741Y146107D01*
X66003Y146205D01*
X66233D01*
X66496Y146139D01*
X66693Y146008D01*
G01X67322Y144236D02*
Y146205D01*
G01X68701D02*
Y144236D01*
G01Y145220D02*
X67322D01*
G01X88138Y144236D02*
Y146205D01*
X88991Y144564D01*
X89845Y146205D01*
Y144236D01*
G01X90606Y146205D02*
X91393D01*
G01X90999D02*
Y144236D01*
G01X90606D02*
X91393D01*
G01X92286D02*
Y146205D01*
X92942D01*
X93204Y146107D01*
X93401Y145975D01*
X93565Y145778D01*
X93697Y145549D01*
X93729Y145220D01*
X93697Y144892D01*
X93565Y144663D01*
X93401Y144466D01*
X93204Y144334D01*
X92942Y144236D01*
X92286D01*
G01X114335Y146205D02*
Y144236D01*
X115648D01*
G01X116999D02*
X116737Y144269D01*
X116507Y144400D01*
X116310Y144597D01*
X116179Y144827D01*
X116113Y145089D01*
Y145352D01*
X116179Y145614D01*
X116310Y145844D01*
X116507Y146041D01*
X116737Y146172D01*
X116999Y146205D01*
X117262Y146172D01*
X117492Y146041D01*
X117689Y145844D01*
X117820Y145614D01*
X117886Y145352D01*
Y145089D01*
X117820Y144827D01*
X117689Y144597D01*
X117492Y144400D01*
X117262Y144269D01*
X116999Y144236D01*
G01X118023Y146205D02*
X118482Y144236D01*
X119007Y146205D01*
X119533Y144236D01*
X119992Y146205D01*
G54D13*
G01X74646Y126520D02*
X74645Y141480D01*
G01X55354Y126520D02*
X74646D01*
G01X55354Y141480D02*
X55355Y126520D01*
G01X74645Y141480D02*
X55354D01*
G01X107354Y126520D02*
X126646D01*
G01X107354Y141480D02*
X107355Y126520D01*
G01X126645Y141480D02*
X107354D01*
G01X100646Y126520D02*
X100645Y141480D01*
G01X81354Y126520D02*
X100646D01*
G01X81354Y141480D02*
X81355Y126520D01*
G01X100645Y141480D02*
X81354D01*
G01X126646Y126520D02*
X126645Y141480D01*
M02*
